<svg width="9" height="9" viewBox="0 0 9 9" fill="none" xmlns="http://www.w3.org/2000/svg">
<path d="M3 1.00098V3.00098H1V1.00098H3ZM4 8.00098V6.00098C4 5.73576 3.89464 5.48141 3.70711 5.29387C3.51957 5.10633 3.26522 5.00098 3 5.00098H1C0.734784 5.00098 0.48043 5.10633 0.292893 5.29387C0.105357 5.48141 0 5.73576 0 6.00098V8.00098C0 8.26619 0.105357 8.52055 0.292893 8.70808C0.48043 8.89562 0.734784 9.00098 1 9.00098H3C3.26522 9.00098 3.51957 8.89562 3.70711 8.70808C3.89464 8.52055 4 8.26619 4 8.00098ZM4 3.00098V1.00098C4 0.73576 3.89464 0.481406 3.70711 0.29387C3.51957 0.106333 3.26522 0.000976563 3 0.000976562H1C0.734784 0.000976563 0.48043 0.106333 0.292893 0.29387C0.105357 0.481406 0 0.73576 0 1.00098V3.00098C0 3.26619 0.105357 3.52055 0.292893 3.70808C0.48043 3.89562 0.734784 4.00098 1 4.00098H3C3.26522 4.00098 3.51957 3.89562 3.70711 3.70808C3.89464 3.52055 4 3.26619 4 3.00098ZM9 8.00098V6.00098C9 5.73576 8.89464 5.48141 8.70711 5.29387C8.51957 5.10633 8.26522 5.00098 8 5.00098H6C5.73478 5.00098 5.48043 5.10633 5.29289 5.29387C5.10536 5.48141 5 5.73576 5 6.00098V8.00098C5 8.26619 5.10536 8.52055 5.29289 8.70808C5.48043 8.89562 5.73478 9.00098 6 9.00098H8C8.26522 9.00098 8.51957 8.89562 8.70711 8.70808C8.89464 8.52055 9 8.26619 9 8.00098ZM9 3.00098V1.00098C9 0.73576 8.89464 0.481406 8.70711 0.29387C8.51957 0.106333 8.26522 0.000976563 8 0.000976562H6C5.73478 0.000976563 5.48043 0.106333 5.29289 0.29387C5.10536 0.481406 5 0.73576 5 1.00098V3.00098C5 3.26619 5.10536 3.52055 5.29289 3.70808C5.48043 3.89562 5.73478 4.00098 6 4.00098H8C8.26522 4.00098 8.51957 3.89562 8.70711 3.70808C8.89464 3.52055 9 3.26619 9 3.00098ZM8 1.00098V3.00098H6V1.00098H8ZM3 6.00098V8.00098H1V6.00098H3ZM8 6.00098V8.00098H6V6.00098H8Z" fill="#A5AEBD"/>
</svg>
