<svg width="17" height="17" viewBox="0 0 17 17" fill="none" xmlns="http://www.w3.org/2000/svg">
<g clip-path="url(#clip0_2053_2941)">
<path d="M0.499756 1.99927C0.499756 1.86666 0.552434 1.73948 0.646202 1.64571C0.739971 1.55195 0.867148 1.49927 0.999756 1.49927H2.49976C2.61129 1.4993 2.71961 1.53662 2.80749 1.60529C2.89537 1.67397 2.95777 1.77005 2.98476 1.87827L3.38976 3.49927H14.9998C15.0732 3.49934 15.1457 3.51557 15.2121 3.54682C15.2785 3.57807 15.3373 3.62356 15.3841 3.68007C15.431 3.73658 15.4649 3.80272 15.4833 3.87379C15.5017 3.94485 15.5043 4.0191 15.4908 4.09127L13.9908 12.0913C13.9693 12.2058 13.9085 12.3093 13.8188 12.3838C13.7292 12.4583 13.6163 12.4992 13.4998 12.4993H4.49976C4.38319 12.4992 4.27032 12.4583 4.18067 12.3838C4.09101 12.3093 4.0302 12.2058 4.00876 12.0913L2.50976 4.10627L2.10976 2.49927H0.999756C0.867148 2.49927 0.739971 2.44659 0.646202 2.35282C0.552434 2.25905 0.499756 2.13188 0.499756 1.99927ZM3.60176 4.49927L4.91476 11.4993H13.0848L14.3978 4.49927H3.60176ZM5.49976 12.4993C4.96932 12.4993 4.46061 12.71 4.08554 13.0851C3.71047 13.4601 3.49976 13.9688 3.49976 14.4993C3.49976 15.0297 3.71047 15.5384 4.08554 15.9135C4.46061 16.2886 4.96932 16.4993 5.49976 16.4993C6.03019 16.4993 6.5389 16.2886 6.91397 15.9135C7.28904 15.5384 7.49976 15.0297 7.49976 14.4993C7.49976 13.9688 7.28904 13.4601 6.91397 13.0851C6.5389 12.71 6.03019 12.4993 5.49976 12.4993ZM12.4998 12.4993C11.9693 12.4993 11.4606 12.71 11.0855 13.0851C10.7105 13.4601 10.4998 13.9688 10.4998 14.4993C10.4998 15.0297 10.7105 15.5384 11.0855 15.9135C11.4606 16.2886 11.9693 16.4993 12.4998 16.4993C13.0302 16.4993 13.5389 16.2886 13.914 15.9135C14.289 15.5384 14.4998 15.0297 14.4998 14.4993C14.4998 13.9688 14.289 13.4601 13.914 13.0851C13.5389 12.71 13.0302 12.4993 12.4998 12.4993ZM5.49976 13.4993C5.76497 13.4993 6.01933 13.6046 6.20686 13.7922C6.3944 13.9797 6.49976 14.2341 6.49976 14.4993C6.49976 14.7645 6.3944 15.0188 6.20686 15.2064C6.01933 15.3939 5.76497 15.4993 5.49976 15.4993C5.23454 15.4993 4.98019 15.3939 4.79265 15.2064C4.60511 15.0188 4.49976 14.7645 4.49976 14.4993C4.49976 14.2341 4.60511 13.9797 4.79265 13.7922C4.98019 13.6046 5.23454 13.4993 5.49976 13.4993ZM12.4998 13.4993C12.765 13.4993 13.0193 13.6046 13.2069 13.7922C13.3944 13.9797 13.4998 14.2341 13.4998 14.4993C13.4998 14.7645 13.3944 15.0188 13.2069 15.2064C13.0193 15.3939 12.765 15.4993 12.4998 15.4993C12.2345 15.4993 11.9802 15.3939 11.7926 15.2064C11.6051 15.0188 11.4998 14.7645 11.4998 14.4993C11.4998 14.2341 11.6051 13.9797 11.7926 13.7922C11.9802 13.6046 12.2345 13.4993 12.4998 13.4993Z" fill="white"/>
</g>
<defs>
<clipPath id="clip0_2053_2941">
<rect width="16" height="16" fill="white" transform="translate(0.5 0.5)"/>
</clipPath>
</defs>
</svg>
