<svg width="14" height="14" viewBox="0 0 14 14" fill="none" xmlns="http://www.w3.org/2000/svg">
<g clip-path="url(#clip0_2014_1164)">
<rect width="14" height="14" fill="white" fill-opacity="0.01"/>
<path fill-rule="evenodd" clip-rule="evenodd" d="M1.44006 4.06432C1.4807 4.02358 1.52897 3.99125 1.58213 3.9692C1.63528 3.94714 1.69226 3.93579 1.74981 3.93579C1.80735 3.93579 1.86433 3.94714 1.91748 3.9692C1.97064 3.99125 2.01892 4.02358 2.05956 4.06432L6.99981 9.00545L11.9401 4.06432C11.9807 4.02365 12.029 3.99138 12.0822 3.96936C12.1353 3.94735 12.1923 3.93602 12.2498 3.93602C12.3073 3.93602 12.3643 3.94735 12.4174 3.96936C12.4706 3.99138 12.5189 4.02365 12.5596 4.06432C12.6002 4.105 12.6325 4.15329 12.6545 4.20644C12.6765 4.25958 12.6879 4.31655 12.6879 4.37407C12.6879 4.4316 12.6765 4.48856 12.6545 4.54171C12.6325 4.59486 12.6002 4.64315 12.5596 4.68382L7.30956 9.93382C7.26892 9.97457 7.22064 10.0069 7.16748 10.0289C7.11433 10.051 7.05735 10.0624 6.99981 10.0624C6.94226 10.0624 6.88528 10.051 6.83213 10.0289C6.77897 10.0069 6.7307 9.97457 6.69006 9.93382L1.44006 4.68382C1.39931 4.64318 1.36699 4.5949 1.34493 4.54175C1.32288 4.4886 1.31152 4.43162 1.31152 4.37407C1.31152 4.31653 1.32288 4.25955 1.34493 4.20639C1.36699 4.15324 1.39931 4.10496 1.44006 4.06432Z" fill="#8B92A2"/>
</g>
<defs>
<clipPath id="clip0_2014_1164">
<rect width="14" height="14" fill="white"/>
</clipPath>
</defs>
</svg>
